<?xml version="1.0" encoding="UTF-8"?><svg version="1.1" width="103px" height="76px" viewBox="0 0 103.0 76.0" xmlns="http://www.w3.org/2000/svg" xmlns:xlink="http://www.w3.org/1999/xlink"><defs><clipPath id="i0"><path d="M103,0 L103,76 L0,76 L0,0 L103,0 Z"></path></clipPath><clipPath id="i1"><path d="M27.0880088,0.100828761 C35.3720978,0.0458766579 42.1322263,6.71691018 42.1871784,15.0009992 L42.1871781,15.2000445 L41.8521259,65.6861211 C41.7976635,73.8925854 35.1584203,80.5318082 26.9519558,80.5862454 L15.2000448,80.6642011 C6.91595578,80.7191532 0.155827291,74.0481197 0.100875188,65.7640307 L0.100875494,65.5649854 L0.435927666,15.0789088 C0.490390082,6.87244446 7.12963328,0.233221679 15.3360978,0.178784494 L27.0880088,0.100828761 Z"></path></clipPath><clipPath id="i2"><path d="M15.2000448,0.100828761 L26.9519558,0.178784494 C35.1584203,0.233221679 41.7976635,6.87244446 41.8521259,15.0789088 L42.1871781,65.5649854 C42.2421557,73.8490742 35.5711429,80.6092232 27.2870541,80.6642008 L27.0880088,80.6642011 L15.3360978,80.5862454 C7.12963328,80.5318082 0.490390082,73.8925854 0.435927666,65.6861211 L0.100875494,15.2000445 C0.045897921,6.91595563 6.71691066,0.15580664 15.0009995,0.100829067 L15.2000448,0.100828761 Z"></path></clipPath><clipPath id="i3"><path d="M29.523584,0 L50.6682141,21.6779521 C55.2940923,26.4229557 55.2000255,34.0194207 50.4580693,38.6484227 L39.9988064,48.8532749 C34.1722461,54.5381103 24.874922,54.5381103 19.0483616,48.8532749 L8.5890988,38.6484227 C3.8471426,34.0194207 3.75307582,26.4229557 8.37895399,21.6779521 L29.523584,0 Z"></path></clipPath></defs><g clip-path="url(#i0)"><g transform="translate(-5.0 -6.0)"><g transform="translate(83.580519981628 0.15424941905926914) rotate(43.99999999999999)"><g clip-path="url(#i1)"><polygon points="0.100545179,0.100491688 42.1875084,0.100491688 42.1875084,80.6645382 0.100545179,80.6645382 0.100545179,0.100491688" stroke="none" fill="#7D9BED" opacity="75.7091704%"></polygon></g></g><g transform="translate(8.526512829121202e-14 29.74825013508099) rotate(-43.99999999999999)"><g clip-path="url(#i2)"><polygon points="0.100538108,0.100498752 42.1875155,0.100498752 42.1875155,80.6645311 0.100538108,80.6645311 0.100538108,0.100498752" stroke="none" fill="#00A996" opacity="27.1344866%"></polygon></g></g><g transform="translate(27.360247714589203 28.267401073962375)"><g clip-path="url(#i3)"><polygon points="4.97016239,0 54.0770057,0 54.0770057,53.1169014 4.97016239,53.1169014 4.97016239,0" stroke="none" fill="#00A996"></polygon></g></g></g></g></svg>